<svg xmlns="http://www.w3.org/2000/svg" viewBox="0 0 24 24" fill="#E1306C">
  <path d="M12 2.163c3.204 0 3.584.012 4.85.07 1.366.062 2.633.35 3.608 1.325.975.975 1.263 2.242 1.325 3.608.058 1.266.07 1.646.07 4.85s-.012 3.584-.07 4.85c-.062 1.366-.35 2.633-1.325 3.608-.975.975-2.242 1.263-3.608 1.325-1.266.058-1.646.07-4.85.07s-3.584-.012-4.85-.07c-1.366-.062-2.633-.35-3.608-1.325-.975-.975-1.263-2.242-1.325-3.608C2.175 15.747 2.163 15.367 2.163 12s.012-3.584.07-4.85c.062-1.366.35-2.633 1.325-3.608C4.533 2.513 5.8 2.225 7.166 2.163 8.432 2.105 8.812 2.163 12 2.163zm0-2.163C8.741 0 8.332.014 7.052.072 5.771.13 4.639.422 3.68 1.38 2.72 2.339 2.428 3.471 2.37 4.752.014 8.332 0 8.741 0 12c0 3.259.014 3.668.072 4.948.058 1.281.35 2.413 1.309 3.372.959.959 2.091 1.251 3.372 1.309C8.332 23.986 8.741 24 12 24s3.668-.014 4.948-.072c1.281-.058 2.413-.35 3.372-1.309.959-.959 1.251-2.091 1.309-3.372.058-1.28.072-1.689.072-4.948s-.014-3.668-.072-4.948c-.058-1.281-.35-2.413-1.309-3.372C19.361.422 18.229.13 16.948.072 15.668.014 15.259 0 12 0z"/>
  <path d="M12 5.838A6.162 6.162 0 0 0 5.838 12 6.162 6.162 0 0 0 12 18.162 6.162 6.162 0 0 0 18.162 12 6.162 6.162 0 0 0 12 5.838zm0 10.162A4 4 0 1 1 16 12a4.005 4.005 0 0 1-4 4z"/>
  <circle cx="18.406" cy="5.594" r="1.44"/>
</svg>
