<svg xmlns="http://www.w3.org/2000/svg" viewBox="0 0 24 24" fill="#25D366">
  <path d="M20.52 3.48A11.874 11.874 0 0 0 12 0C5.372 0 0 5.372 0 12c0 2.114.553 4.1 1.52 5.82L0 24l6.445-1.684A11.92 11.92 0 0 0 12 24c6.627 0 12-5.373 12-12 0-3.183-1.242-6.176-3.48-8.52zM12 21.6c-1.816 0-3.543-.49-5.052-1.414l-.36-.214-3.83 1 1.02-3.737-.235-.375A9.59 9.59 0 0 1 2.4 12c0-5.304 4.296-9.6 9.6-9.6 2.56 0 4.96.998 6.72 2.76 1.76 1.76 2.76 4.16 2.76 6.72 0 5.304-4.296 9.6-9.6 9.6zm5.28-6.93c-.15-.08-.87-.43-1.005-.48-.135-.05-.234-.08-.333.08-.1.16-.39.48-.48.58-.09.1-.18.12-.33.04-.15-.08-.63-.23-1.2-.72-.45-.4-.75-.87-.84-1.02-.09-.15-.01-.23.07-.31.08-.08.18-.21.27-.32.09-.11.12-.2.18-.33.06-.13.03-.25-.02-.35-.05-.1-.33-.8-.45-1.1-.12-.29-.24-.25-.33-.25-.09 0-.2 0-.31 0-.11 0-.28.04-.43.2-.15.16-.59.57-.59 1.37 0 .8.61 1.57.69 1.68.08.11 1.2 1.83 2.91 2.56 1.7.74 1.7.49 2.01.46.31-.03 1.02-.41 1.17-.81.15-.4.15-.74.11-.81-.04-.08-.15-.12-.31-.2z"/>
</svg>
